<svg width="100" height="100" viewBox="0 0 100 100" fill="none" xmlns="http://www.w3.org/2000/svg">
<path d="M49.4901 18.5109C49.0537 26.8014 44.8164 34.8969 44.149 43.239C43.3719 52.9533 45.2408 62.8504 45.2408 72.6295C45.2408 73.6239 44.7755 75.971 45.772 76.5246C47.6211 77.5518 49.0654 78.6376 50.5524 80.1246C52.2765 81.8487 53.8823 88.991 54.0344 86.5575C54.0919 85.6369 53.7393 82.2189 53.7393 82.2492" stroke="white" stroke-width="3" stroke-linecap="round"/>
<path d="M50.5524 17.9797C49.2307 19.6319 50.0212 23.8744 50.0212 25.947C50.0212 28.5635 50.0212 31.1799 50.0212 33.7963C50.0212 40.2911 49.5719 46.6409 48.9294 53.0653C48.3104 59.2549 48.3575 65.4152 49.7556 71.5672C50.5898 75.2374 51.0835 86.5443 51.0835 82.7804" stroke="white" stroke-width="3" stroke-linecap="round"/>
<path d="M48.9589 24.3535C48.6701 32.7309 46.8343 40.8583 46.8343 49.3177C46.8343 54.4128 46.8343 59.508 46.8343 64.6031C46.8343 69.1474 46.8343 73.6917 46.8343 78.236C46.8343 81.0601 47.4052 86.1859 46.3032 80.1246" stroke="white" stroke-width="3" stroke-linecap="round"/>
<path d="M46.3031 18.5109C46.3031 29.1365 45.772 39.8563 45.772 50.38" stroke="white" stroke-width="3" stroke-linecap="round"/>
<path d="M19.2144 17.9797C22.4257 24.4025 24.9138 30.7827 28.7751 36.6881C32.6212 42.5703 39.6264 43.1722 44.1786 47.7243" stroke="white" stroke-width="3" stroke-linecap="round"/>
<path d="M21.8701 17.9797C25.3025 21.614 25.3275 27.4819 27.5948 31.7897C28.8491 34.173 30.4148 36.7501 32.2571 38.6947C33.6968 40.2144 34.1901 41.4671 36.2112 42.5308C37.2668 43.0864 40.6784 45.7224 40.9916 46.662" stroke="white" stroke-width="3" stroke-linecap="round"/>
<path d="M51.0836 18.5109C53.1068 18.5109 54.625 20.1043 56.6607 20.1043C57.7724 20.1043 58.8631 20.6355 60.1427 20.6355C62.1269 20.6355 64.0015 20.1043 65.9854 20.1043C70.4121 20.1043 74.4204 20.4717 78.8216 21.1666C81.5597 21.599 89.7241 22.9558 87.0839 22.1109C85.976 21.7564 84.9794 21.6488 84.015 21.1666" stroke="white" stroke-width="3" stroke-linecap="round"/>
<path d="M81.8905 20.1042C76.7035 25.8675 72.9288 33.3026 66.605 38.0454C63.2888 40.5326 60.0674 42.1107 56.2771 43.7111C54.194 44.5906 52.8303 46.7332 52.1459 48.7865" stroke="white" stroke-width="3" stroke-linecap="round"/>
<path d="M80.8281 19.5732C78.7757 19.694 76.2561 22.6607 75.0149 24.088C72.7866 26.6506 71.1664 29.2167 69.3788 32.0258C67.2746 35.3324 65.0093 36.9855 62.2377 39.7571C59.2008 42.794 56.1574 45.3129 53.0016 48.226C51.8525 49.2867 57.0389 50.4233 58.2836 50.6752C61.4576 51.3176 64.8301 50.9606 67.9624 51.8555C69.8066 52.3825 72.3338 51.9736 74.2182 51.9736C81.3683 51.9736 72.2351 51.9736 70.0575 51.9736C65.2842 51.9736 60.703 52.5047 55.9819 52.5047C55.1702 52.5047 52.7149 51.0281 53.3262 50.9408C58.4731 50.2055 64.1722 50.9113 69.3788 50.9113C73.1952 50.9113 77.0117 50.9113 80.8281 50.9113" stroke="white" stroke-width="3" stroke-linecap="round"/>
<path d="M17.8064 18.8599C18.7556 19.1763 19.4388 21.3477 20.0124 22.1443C20.735 23.148 21.6363 23.9372 22.2184 25.0366C23.2145 26.9182 24.0375 28.8834 25.0861 30.7476C26.168 32.671 27.5191 37.8345 29.2775 38.7137" stroke="white" stroke-width="3" stroke-linecap="round"/>
<path d="M17.8064 19.7422C17.9825 21.1511 20.1871 22.8298 20.6742 24.3993C21.5094 27.0905 22.6266 30.0393 23.1253 32.782C23.7825 36.3969 26.117 40.1527 29.0569 42.4393C31.6818 44.4809 34.1212 46.9101 37.6602 47.0963C40.7019 47.2564 43.9545 47.2493 46.9253 46.6552" stroke="white" stroke-width="3" stroke-linecap="round"/>
<path d="M27.5127 36.0664C31.0365 36.0664 33.38 40.8553 35.5523 43.0275C36.6156 44.0909 38.9004 46.1861 40.3074 46.6551" stroke="white" stroke-width="3" stroke-linecap="round"/>
<path d="M28.3952 39.1548C29.6664 39.8278 31.2215 41.3075 32.1208 42.4638C33.0216 43.6219 34.3079 43.6849 35.4543 44.4491" stroke="white" stroke-width="3" stroke-linecap="round"/>
<path d="M42.9546 20.6246C43.7718 27.9799 45.3381 36.0398 44.1801 43.5668C43.3446 48.9976 43.837 54.8255 43.837 60.3323C43.837 64.1505 43.7365 67.9864 43.837 71.8034C43.8948 73.9996 45.0464 75.9258 45.1606 77.9801C45.3753 81.8456 47.3666 85.1321 47.3666 89.01" stroke="white" stroke-width="3" stroke-linecap="round"/>
<path d="M51.3373 22.8306C52.909 22.8306 54.1444 22.9887 55.5286 23.2963C57.2181 23.6717 58.4415 25.0365 60.4063 25.0365C65.9171 25.0365 71.4621 25.4777 76.9267 25.4777" stroke="white" stroke-width="3" stroke-linecap="round"/>
<path d="M57.9553 22.8306C64.6081 22.8306 71.1337 23.2718 77.8091 23.2718" stroke="white" stroke-width="3" stroke-linecap="round"/>
<path d="M57.514 47.9787C66.2131 47.1088 75.1873 47.5375 83.9858 47.5375" stroke="white" stroke-width="3" stroke-linecap="round"/>
<path d="M57.514 48.4199C61.6533 48.4199 65.6423 48.6765 69.7205 48.8856C74.5315 49.1323 79.1893 50.6259 83.9858 50.6259" stroke="white" stroke-width="3" stroke-linecap="round"/>
<path d="M77.3679 28.125C75.4556 30.5154 74.371 34.2254 72.8579 36.9489C72.2232 38.0914 69.1605 40.1195 68.0048 40.9197C66.0508 42.2725 64.1076 43.7295 62.2692 45.2336C61.3024 46.0247 58.9297 46.4712 58.3965 47.5376" stroke="white" stroke-width="3" stroke-linecap="round"/>
<path d="M73.3971 35.6252C70.9928 36.1061 66.8695 40.6353 65.2595 42.6844C63.6321 44.7555 62.0844 46.6551 59.2788 46.6551C57.6116 46.6551 54.3795 48.7948 58.2003 46.6551C59.9057 45.7002 65.345 44.2831 64.1075 41.1892C64.0474 41.0391 62.9449 42.3329 62.7839 42.4638C61.8842 43.1947 61.2966 44.0165 60.5779 44.9149C59.4677 46.3027 58.4574 47.4864 56.9748 48.4199C55.8185 49.1479 54.9008 49.7435 53.5433 49.7435C53.2109 49.7435 55.0732 49.3023 55.5286 49.3023C57.8401 49.3023 60.0472 48.542 62.3672 48.4199C63.3724 48.367 68.1679 48.8611 65.4556 48.8611" stroke="white" stroke-width="3" stroke-linecap="round"/>
</svg>
